<mxfile host="app.diagrams.net" modified="2022-09-20T09:10:33.637Z" agent="5.0 (Macintosh; Intel Mac OS X 10_15_7) AppleWebKit/537.36 (KHTML, like Gecko) Chrome/105.0.0.0 Safari/537.36" etag="4UAKzZlLE0yjH0uBwt47" version="20.2.8" type="github">
  <diagram id="C5RBs43oDa-KdzZeNtuy" name="Page-1">
    <mxGraphModel dx="946" dy="614" grid="1" gridSize="10" guides="1" tooltips="1" connect="1" arrows="1" fold="1" page="1" pageScale="1" pageWidth="827" pageHeight="1169" math="0" shadow="0">
      <root>
        <mxCell id="WIyWlLk6GJQsqaUBKTNV-0" />
        <mxCell id="WIyWlLk6GJQsqaUBKTNV-1" parent="WIyWlLk6GJQsqaUBKTNV-0" />
        <mxCell id="zkfFHV4jXpPFQw0GAbJ--0" value="PayBusinessChannel" style="swimlane;fontStyle=2;align=center;verticalAlign=top;childLayout=stackLayout;horizontal=1;startSize=26;horizontalStack=0;resizeParent=1;resizeLast=0;collapsible=1;marginBottom=0;rounded=0;shadow=0;strokeWidth=1;" parent="WIyWlLk6GJQsqaUBKTNV-1" vertex="1">
          <mxGeometry x="140" y="90" width="140" height="174" as="geometry">
            <mxRectangle x="230" y="140" width="160" height="26" as="alternateBounds" />
          </mxGeometry>
        </mxCell>
        <mxCell id="zkfFHV4jXpPFQw0GAbJ--4" value="" style="line;html=1;strokeWidth=1;align=left;verticalAlign=middle;spacingTop=-1;spacingLeft=3;spacingRight=3;rotatable=0;labelPosition=right;points=[];portConstraint=eastwest;" parent="zkfFHV4jXpPFQw0GAbJ--0" vertex="1">
          <mxGeometry y="26" width="140" height="8" as="geometry" />
        </mxCell>
        <mxCell id="zkfFHV4jXpPFQw0GAbJ--5" value="id&#xa;machant_num&#xa;business_id&#xa;pay_account_id&#xa;pay_channel_id&#xa;remark&#xa;status" style="text;align=left;verticalAlign=top;spacingLeft=4;spacingRight=4;overflow=hidden;rotatable=0;points=[[0,0.5],[1,0.5]];portConstraint=eastwest;" parent="zkfFHV4jXpPFQw0GAbJ--0" vertex="1">
          <mxGeometry y="34" width="140" height="116" as="geometry" />
        </mxCell>
        <mxCell id="SVHCrLaq6vuq44gtuUZX-13" style="edgeStyle=orthogonalEdgeStyle;rounded=0;orthogonalLoop=1;jettySize=auto;html=1;exitX=0.75;exitY=0;exitDx=0;exitDy=0;" edge="1" parent="WIyWlLk6GJQsqaUBKTNV-1" source="zkfFHV4jXpPFQw0GAbJ--6">
          <mxGeometry relative="1" as="geometry">
            <mxPoint x="513" y="290" as="targetPoint" />
          </mxGeometry>
        </mxCell>
        <mxCell id="zkfFHV4jXpPFQw0GAbJ--6" value="PayChannel" style="swimlane;fontStyle=0;align=center;verticalAlign=top;childLayout=stackLayout;horizontal=1;startSize=26;horizontalStack=0;resizeParent=1;resizeLast=0;collapsible=1;marginBottom=0;rounded=0;shadow=0;strokeWidth=1;" parent="WIyWlLk6GJQsqaUBKTNV-1" vertex="1">
          <mxGeometry x="400" y="360" width="150" height="260" as="geometry">
            <mxRectangle x="130" y="380" width="160" height="26" as="alternateBounds" />
          </mxGeometry>
        </mxCell>
        <mxCell id="zkfFHV4jXpPFQw0GAbJ--7" value="id&#xa;pay_channel_id&#xa;short_name&#xa;full_name&#xa;alias_name&#xa;product_id&#xa;terminal&#xa;status&#xa;assert_type&#xa;asset_type_code&#xa;product_code&#xa;" style="text;align=left;verticalAlign=top;spacingLeft=4;spacingRight=4;overflow=hidden;rotatable=0;points=[[0,0.5],[1,0.5]];portConstraint=eastwest;" parent="zkfFHV4jXpPFQw0GAbJ--6" vertex="1">
          <mxGeometry y="26" width="150" height="174" as="geometry" />
        </mxCell>
        <mxCell id="zkfFHV4jXpPFQw0GAbJ--9" value="" style="line;html=1;strokeWidth=1;align=left;verticalAlign=middle;spacingTop=-1;spacingLeft=3;spacingRight=3;rotatable=0;labelPosition=right;points=[];portConstraint=eastwest;" parent="zkfFHV4jXpPFQw0GAbJ--6" vertex="1">
          <mxGeometry y="200" width="150" height="8" as="geometry" />
        </mxCell>
        <mxCell id="zkfFHV4jXpPFQw0GAbJ--12" value="" style="endArrow=block;endSize=10;endFill=0;shadow=0;strokeWidth=1;rounded=0;edgeStyle=elbowEdgeStyle;elbow=vertical;" parent="WIyWlLk6GJQsqaUBKTNV-1" source="zkfFHV4jXpPFQw0GAbJ--6" target="zkfFHV4jXpPFQw0GAbJ--0" edge="1">
          <mxGeometry width="160" relative="1" as="geometry">
            <mxPoint x="200" y="203" as="sourcePoint" />
            <mxPoint x="200" y="203" as="targetPoint" />
          </mxGeometry>
        </mxCell>
        <mxCell id="zkfFHV4jXpPFQw0GAbJ--13" value="PayAccount" style="swimlane;fontStyle=0;align=center;verticalAlign=top;childLayout=stackLayout;horizontal=1;startSize=26;horizontalStack=0;resizeParent=1;resizeLast=0;collapsible=1;marginBottom=0;rounded=0;shadow=0;strokeWidth=1;" parent="WIyWlLk6GJQsqaUBKTNV-1" vertex="1">
          <mxGeometry x="234" y="360" width="136" height="260" as="geometry">
            <mxRectangle x="340" y="380" width="170" height="26" as="alternateBounds" />
          </mxGeometry>
        </mxCell>
        <mxCell id="zkfFHV4jXpPFQw0GAbJ--14" value="id&#xa;pay_cnf_id&#xa;application&#xa;app_id&#xa;merchant_id&#xa;publick_key&#xa;publick_value&#xa;private_key&#xa;private_value&#xa;readable&#xa;exrea_params&#xa;status&#xa;" style="text;align=left;verticalAlign=top;spacingLeft=4;spacingRight=4;overflow=hidden;rotatable=0;points=[[0,0.5],[1,0.5]];portConstraint=eastwest;" parent="zkfFHV4jXpPFQw0GAbJ--13" vertex="1">
          <mxGeometry y="26" width="136" height="194" as="geometry" />
        </mxCell>
        <mxCell id="zkfFHV4jXpPFQw0GAbJ--15" value="" style="line;html=1;strokeWidth=1;align=left;verticalAlign=middle;spacingTop=-1;spacingLeft=3;spacingRight=3;rotatable=0;labelPosition=right;points=[];portConstraint=eastwest;" parent="zkfFHV4jXpPFQw0GAbJ--13" vertex="1">
          <mxGeometry y="220" width="136" height="8" as="geometry" />
        </mxCell>
        <mxCell id="zkfFHV4jXpPFQw0GAbJ--16" value="" style="endArrow=block;endSize=10;endFill=0;shadow=0;strokeWidth=1;rounded=0;edgeStyle=elbowEdgeStyle;elbow=vertical;" parent="WIyWlLk6GJQsqaUBKTNV-1" source="zkfFHV4jXpPFQw0GAbJ--13" target="zkfFHV4jXpPFQw0GAbJ--0" edge="1">
          <mxGeometry width="160" relative="1" as="geometry">
            <mxPoint x="210" y="373" as="sourcePoint" />
            <mxPoint x="310" y="271" as="targetPoint" />
          </mxGeometry>
        </mxCell>
        <mxCell id="zkfFHV4jXpPFQw0GAbJ--17" value="PayCashier" style="swimlane;fontStyle=0;align=center;verticalAlign=top;childLayout=stackLayout;horizontal=1;startSize=26;horizontalStack=0;resizeParent=1;resizeLast=0;collapsible=1;marginBottom=0;rounded=0;shadow=0;strokeWidth=1;" parent="WIyWlLk6GJQsqaUBKTNV-1" vertex="1">
          <mxGeometry x="630" y="84" width="160" height="180" as="geometry">
            <mxRectangle x="550" y="140" width="160" height="26" as="alternateBounds" />
          </mxGeometry>
        </mxCell>
        <mxCell id="zkfFHV4jXpPFQw0GAbJ--18" value="id&#xa;machant_num&#xa;business_id&#xa;terminal&#xa;country&#xa;status&#xa;show_cashier&#xa;" style="text;align=left;verticalAlign=top;spacingLeft=4;spacingRight=4;overflow=hidden;rotatable=0;points=[[0,0.5],[1,0.5]];portConstraint=eastwest;" parent="zkfFHV4jXpPFQw0GAbJ--17" vertex="1">
          <mxGeometry y="26" width="160" height="124" as="geometry" />
        </mxCell>
        <mxCell id="zkfFHV4jXpPFQw0GAbJ--23" value="" style="line;html=1;strokeWidth=1;align=left;verticalAlign=middle;spacingTop=-1;spacingLeft=3;spacingRight=3;rotatable=0;labelPosition=right;points=[];portConstraint=eastwest;" parent="zkfFHV4jXpPFQw0GAbJ--17" vertex="1">
          <mxGeometry y="150" width="160" height="8" as="geometry" />
        </mxCell>
        <mxCell id="zkfFHV4jXpPFQw0GAbJ--26" value="" style="endArrow=open;shadow=0;strokeWidth=1;rounded=0;endFill=1;edgeStyle=elbowEdgeStyle;elbow=vertical;" parent="WIyWlLk6GJQsqaUBKTNV-1" source="SVHCrLaq6vuq44gtuUZX-8" target="zkfFHV4jXpPFQw0GAbJ--17" edge="1">
          <mxGeometry x="0.5" y="41" relative="1" as="geometry">
            <mxPoint x="380" y="192" as="sourcePoint" />
            <mxPoint x="540" y="192" as="targetPoint" />
            <mxPoint x="-40" y="32" as="offset" />
          </mxGeometry>
        </mxCell>
        <mxCell id="zkfFHV4jXpPFQw0GAbJ--27" value="0..1" style="resizable=0;align=left;verticalAlign=bottom;labelBackgroundColor=none;fontSize=12;" parent="zkfFHV4jXpPFQw0GAbJ--26" connectable="0" vertex="1">
          <mxGeometry x="-1" relative="1" as="geometry">
            <mxPoint y="4" as="offset" />
          </mxGeometry>
        </mxCell>
        <mxCell id="zkfFHV4jXpPFQw0GAbJ--28" value="1" style="resizable=0;align=right;verticalAlign=bottom;labelBackgroundColor=none;fontSize=12;" parent="zkfFHV4jXpPFQw0GAbJ--26" connectable="0" vertex="1">
          <mxGeometry x="1" relative="1" as="geometry">
            <mxPoint x="-7" y="4" as="offset" />
          </mxGeometry>
        </mxCell>
        <mxCell id="SVHCrLaq6vuq44gtuUZX-11" style="edgeStyle=orthogonalEdgeStyle;rounded=0;orthogonalLoop=1;jettySize=auto;html=1;exitX=0.25;exitY=0;exitDx=0;exitDy=0;" edge="1" parent="WIyWlLk6GJQsqaUBKTNV-1" source="SVHCrLaq6vuq44gtuUZX-0">
          <mxGeometry relative="1" as="geometry">
            <mxPoint x="210" y="270" as="targetPoint" />
            <Array as="points">
              <mxPoint x="100" y="360" />
              <mxPoint x="100" y="310" />
              <mxPoint x="210" y="310" />
            </Array>
          </mxGeometry>
        </mxCell>
        <mxCell id="SVHCrLaq6vuq44gtuUZX-0" value="PayBusinessType" style="swimlane;fontStyle=0;align=center;verticalAlign=top;childLayout=stackLayout;horizontal=1;startSize=26;horizontalStack=0;resizeParent=1;resizeLast=0;collapsible=1;marginBottom=0;rounded=0;shadow=0;strokeWidth=1;" vertex="1" parent="WIyWlLk6GJQsqaUBKTNV-1">
          <mxGeometry x="60" y="360" width="150" height="260" as="geometry">
            <mxRectangle x="340" y="380" width="170" height="26" as="alternateBounds" />
          </mxGeometry>
        </mxCell>
        <mxCell id="SVHCrLaq6vuq44gtuUZX-1" value="id&#xa;mch_num&#xa;app_id&#xa;app_key&#xa;app_secreat&#xa;app_name&#xa;uflag&#xa;allow_combine_pay&#xa;module&#xa;extra_config&#xa;status&#xa;&#xa;" style="text;align=left;verticalAlign=top;spacingLeft=4;spacingRight=4;overflow=hidden;rotatable=0;points=[[0,0.5],[1,0.5]];portConstraint=eastwest;" vertex="1" parent="SVHCrLaq6vuq44gtuUZX-0">
          <mxGeometry y="26" width="150" height="194" as="geometry" />
        </mxCell>
        <mxCell id="SVHCrLaq6vuq44gtuUZX-2" value="" style="line;html=1;strokeWidth=1;align=left;verticalAlign=middle;spacingTop=-1;spacingLeft=3;spacingRight=3;rotatable=0;labelPosition=right;points=[];portConstraint=eastwest;" vertex="1" parent="SVHCrLaq6vuq44gtuUZX-0">
          <mxGeometry y="220" width="150" height="8" as="geometry" />
        </mxCell>
        <mxCell id="SVHCrLaq6vuq44gtuUZX-7" value="PayCashierChannelList" style="swimlane;fontStyle=0;align=center;verticalAlign=top;childLayout=stackLayout;horizontal=1;startSize=26;horizontalStack=0;resizeParent=1;resizeLast=0;collapsible=1;marginBottom=0;rounded=0;shadow=0;strokeWidth=1;" vertex="1" parent="WIyWlLk6GJQsqaUBKTNV-1">
          <mxGeometry x="410" y="68" width="160" height="218" as="geometry">
            <mxRectangle x="550" y="140" width="160" height="26" as="alternateBounds" />
          </mxGeometry>
        </mxCell>
        <mxCell id="SVHCrLaq6vuq44gtuUZX-8" value="id&#xa;cashier_id&#xa;pay_channel_id&#xa;product_id&#xa;pay_text&#xa;activity_text&#xa;rank&#xa;status&#xa;display_name&#xa;round_mark&#xa;language_diplay&#xa;config_name&#xa;" style="text;align=left;verticalAlign=top;spacingLeft=4;spacingRight=4;overflow=hidden;rotatable=0;points=[[0,0.5],[1,0.5]];portConstraint=eastwest;" vertex="1" parent="SVHCrLaq6vuq44gtuUZX-7">
          <mxGeometry y="26" width="160" height="184" as="geometry" />
        </mxCell>
        <mxCell id="SVHCrLaq6vuq44gtuUZX-9" value="" style="line;html=1;strokeWidth=1;align=left;verticalAlign=middle;spacingTop=-1;spacingLeft=3;spacingRight=3;rotatable=0;labelPosition=right;points=[];portConstraint=eastwest;" vertex="1" parent="SVHCrLaq6vuq44gtuUZX-7">
          <mxGeometry y="210" width="160" height="8" as="geometry" />
        </mxCell>
        <mxCell id="SVHCrLaq6vuq44gtuUZX-14" value="InstInfo" style="swimlane;" vertex="1" parent="WIyWlLk6GJQsqaUBKTNV-1">
          <mxGeometry x="60" y="750" width="150" height="200" as="geometry" />
        </mxCell>
        <mxCell id="SVHCrLaq6vuq44gtuUZX-16" value="&lt;div style=&quot;text-align: left;&quot;&gt;&lt;span style=&quot;background-color: initial;&quot;&gt;id&lt;/span&gt;&lt;/div&gt;&lt;div style=&quot;text-align: left;&quot;&gt;&lt;span style=&quot;background-color: initial;&quot;&gt;inst_name&lt;/span&gt;&lt;/div&gt;&lt;div style=&quot;text-align: left;&quot;&gt;&lt;span style=&quot;background-color: initial;&quot;&gt;inst_id&lt;/span&gt;&lt;/div&gt;&lt;div style=&quot;text-align: left;&quot;&gt;&lt;span style=&quot;background-color: initial;&quot;&gt;inst_short_name&lt;/span&gt;&lt;/div&gt;&lt;div style=&quot;text-align: left;&quot;&gt;&lt;span style=&quot;background-color: initial;&quot;&gt;email&lt;/span&gt;&lt;/div&gt;&lt;div style=&quot;text-align: left;&quot;&gt;&lt;span style=&quot;background-color: initial;&quot;&gt;address&lt;/span&gt;&lt;/div&gt;&lt;div style=&quot;text-align: left;&quot;&gt;&lt;span style=&quot;background-color: initial;&quot;&gt;contact&lt;br&gt;contact_phone&lt;/span&gt;&lt;/div&gt;&lt;div style=&quot;text-align: left;&quot;&gt;inst_introduction&lt;/div&gt;&lt;div style=&quot;text-align: left;&quot;&gt;inst_ext&lt;/div&gt;&lt;div style=&quot;text-align: left;&quot;&gt;status&lt;/div&gt;" style="text;html=1;align=center;verticalAlign=middle;resizable=0;points=[];autosize=1;strokeColor=none;fillColor=none;" vertex="1" parent="SVHCrLaq6vuq44gtuUZX-14">
          <mxGeometry y="30" width="110" height="170" as="geometry" />
        </mxCell>
        <mxCell id="SVHCrLaq6vuq44gtuUZX-17" value="InstMerchant" style="swimlane;" vertex="1" parent="WIyWlLk6GJQsqaUBKTNV-1">
          <mxGeometry x="350" y="775" width="160" height="130" as="geometry" />
        </mxCell>
        <mxCell id="SVHCrLaq6vuq44gtuUZX-24" style="edgeStyle=orthogonalEdgeStyle;rounded=0;orthogonalLoop=1;jettySize=auto;html=1;" edge="1" parent="SVHCrLaq6vuq44gtuUZX-17" source="SVHCrLaq6vuq44gtuUZX-18" target="SVHCrLaq6vuq44gtuUZX-17">
          <mxGeometry relative="1" as="geometry" />
        </mxCell>
        <mxCell id="SVHCrLaq6vuq44gtuUZX-18" value="id&lt;br&gt;inst_id&lt;br&gt;merchnat_id&lt;br&gt;merchant_ext&lt;br&gt;status&lt;br&gt;bounce_flag" style="text;html=1;strokeColor=none;fillColor=none;align=left;verticalAlign=middle;whiteSpace=wrap;rounded=0;" vertex="1" parent="SVHCrLaq6vuq44gtuUZX-17">
          <mxGeometry x="10" y="30" width="120" height="90" as="geometry" />
        </mxCell>
        <mxCell id="SVHCrLaq6vuq44gtuUZX-19" value="InstProduct" style="swimlane;" vertex="1" parent="WIyWlLk6GJQsqaUBKTNV-1">
          <mxGeometry x="640" y="790" width="150" height="100" as="geometry" />
        </mxCell>
        <mxCell id="SVHCrLaq6vuq44gtuUZX-20" value="id&lt;br&gt;assert_product_code&lt;br&gt;status" style="text;html=1;strokeColor=none;fillColor=none;align=left;verticalAlign=middle;whiteSpace=wrap;rounded=0;" vertex="1" parent="SVHCrLaq6vuq44gtuUZX-19">
          <mxGeometry x="10" y="40" width="80" height="50" as="geometry" />
        </mxCell>
        <mxCell id="SVHCrLaq6vuq44gtuUZX-23" value="InstRouerConfig" style="swimlane;" vertex="1" parent="WIyWlLk6GJQsqaUBKTNV-1">
          <mxGeometry x="310" y="1050" width="160" height="180" as="geometry" />
        </mxCell>
        <mxCell id="SVHCrLaq6vuq44gtuUZX-25" value="id&lt;br&gt;asset_product_code&lt;br&gt;biz_type&lt;br&gt;area&lt;br&gt;enter_param&lt;br&gt;inst_id&lt;br&gt;merchant_id&lt;br&gt;out_param&lt;br&gt;weight" style="text;html=1;align=left;verticalAlign=middle;resizable=0;points=[];autosize=1;strokeColor=none;fillColor=none;" vertex="1" parent="SVHCrLaq6vuq44gtuUZX-23">
          <mxGeometry x="10" y="30" width="130" height="140" as="geometry" />
        </mxCell>
        <mxCell id="SVHCrLaq6vuq44gtuUZX-35" value="hava" style="endArrow=open;html=1;endSize=12;startArrow=diamondThin;startSize=14;startFill=0;edgeStyle=orthogonalEdgeStyle;rounded=0;" edge="1" parent="WIyWlLk6GJQsqaUBKTNV-1">
          <mxGeometry relative="1" as="geometry">
            <mxPoint x="210" y="870" as="sourcePoint" />
            <mxPoint x="350" y="870" as="targetPoint" />
          </mxGeometry>
        </mxCell>
        <mxCell id="SVHCrLaq6vuq44gtuUZX-36" value="1..n" style="edgeLabel;resizable=0;html=1;align=left;verticalAlign=top;rotation=0;" connectable="0" vertex="1" parent="SVHCrLaq6vuq44gtuUZX-35">
          <mxGeometry x="-1" relative="1" as="geometry">
            <mxPoint x="110" as="offset" />
          </mxGeometry>
        </mxCell>
        <mxCell id="SVHCrLaq6vuq44gtuUZX-37" value="1" style="edgeLabel;resizable=0;html=1;align=right;verticalAlign=top;" connectable="0" vertex="1" parent="SVHCrLaq6vuq44gtuUZX-35">
          <mxGeometry x="1" relative="1" as="geometry">
            <mxPoint x="-130" as="offset" />
          </mxGeometry>
        </mxCell>
        <mxCell id="SVHCrLaq6vuq44gtuUZX-38" value="" style="edgeStyle=elbowEdgeStyle;elbow=horizontal;endArrow=classic;html=1;rounded=0;exitX=0.518;exitY=1.006;exitDx=0;exitDy=0;exitPerimeter=0;entryX=0;entryY=0.25;entryDx=0;entryDy=0;" edge="1" parent="WIyWlLk6GJQsqaUBKTNV-1" source="SVHCrLaq6vuq44gtuUZX-16" target="SVHCrLaq6vuq44gtuUZX-23">
          <mxGeometry width="50" height="50" relative="1" as="geometry">
            <mxPoint x="200" y="1000" as="sourcePoint" />
            <mxPoint x="250" y="950" as="targetPoint" />
            <Array as="points">
              <mxPoint x="120" y="1040" />
            </Array>
          </mxGeometry>
        </mxCell>
        <mxCell id="SVHCrLaq6vuq44gtuUZX-39" value="" style="edgeStyle=segmentEdgeStyle;endArrow=classic;html=1;rounded=0;entryX=0.588;entryY=-0.017;entryDx=0;entryDy=0;entryPerimeter=0;" edge="1" parent="WIyWlLk6GJQsqaUBKTNV-1" target="SVHCrLaq6vuq44gtuUZX-23">
          <mxGeometry width="50" height="50" relative="1" as="geometry">
            <mxPoint x="404" y="910" as="sourcePoint" />
            <mxPoint x="450" y="900" as="targetPoint" />
          </mxGeometry>
        </mxCell>
        <mxCell id="SVHCrLaq6vuq44gtuUZX-40" value="" style="edgeStyle=segmentEdgeStyle;endArrow=classic;html=1;rounded=0;exitX=0.5;exitY=1;exitDx=0;exitDy=0;" edge="1" parent="WIyWlLk6GJQsqaUBKTNV-1" source="SVHCrLaq6vuq44gtuUZX-19">
          <mxGeometry width="50" height="50" relative="1" as="geometry">
            <mxPoint x="400" y="950" as="sourcePoint" />
            <mxPoint x="470" y="1100" as="targetPoint" />
            <Array as="points">
              <mxPoint x="715" y="1100" />
            </Array>
          </mxGeometry>
        </mxCell>
      </root>
    </mxGraphModel>
  </diagram>
</mxfile>
